<svg width="40" height="34" viewBox="0 0 40 34" fill="none" xmlns="http://www.w3.org/2000/svg">
<path d="M19.9999 30.5004L18.7864 28.7739C17.9958 27.649 17.6421 26.2745 17.7915 24.9077C17.9268 23.6706 18.4663 22.5127 19.3265 21.6134L29 11.5002M10.0001 30.6486L11.2136 28.9221C12.0042 27.7972 12.3579 26.4227 12.2085 25.0559C12.0733 23.8188 11.5337 22.6609 10.6735 21.7616L1 11.6484M29 9.50012L17.7622 21.2062C17.2577 21.7317 16.8456 22.3387 16.5433 23.0015C15.6392 24.9833 15.7933 27.2871 16.9532 29.1309V29.1309C17.0284 29.2505 16.8695 29.3781 16.7689 29.2789L15.4307 27.9586C13.9568 26.5043 13.5421 24.287 14.3908 22.3983C14.7002 21.7099 15.1626 21.1012 15.7429 20.6187L28.7931 9.76725M12.4649 30.0005L12.8698 29.4245C14.1306 27.6307 14.3461 25.3031 13.4362 23.3083C13.1474 22.6753 12.7539 22.0957 12.2721 21.5938M12.2721 21.5938L1.00003 9.85199L14.0404 20.6953C14.6271 21.1832 15.0947 21.7986 15.4075 22.4946C16.2554 24.3813 15.8572 26.5949 14.405 28.0679L12.5 30.0002M12.2721 21.5938L13 22.352M10.0001 21.5639L11.2136 19.8374C12.0042 18.7124 12.3579 17.338 12.2085 15.9712C12.0733 14.7341 11.5337 13.5762 10.6735 12.6768L1 2.56365M20 21.0002L18.9837 19.7619C18.0737 18.6533 17.6487 17.2248 17.8045 15.7991C17.9321 14.6324 18.4409 13.5404 19.2521 12.6923L29.0012 2.50013M29.0011 0.5L17.7055 12.2663C17.2393 12.752 16.8584 13.3129 16.579 13.9254C15.6657 15.9277 15.9263 18.2698 17.2574 20.0224V20.0224C17.3451 20.1379 17.1906 20.2809 17.0822 20.1846L15.5898 18.8584C14.0369 17.4785 13.5597 15.2503 14.4112 13.3555C14.7079 12.6952 15.1515 12.1114 15.7081 11.6486L28.7943 0.767191M12.8393 20.3282V20.3282C12.7619 20.4364 12.9113 20.5612 13.0039 20.4657L14.4295 18.9968C15.869 17.5135 16.2578 15.302 15.4105 13.4166C15.0958 12.7162 14.6252 12.0969 14.0347 11.6059L1 0.767155L12.2778 12.515C12.7558 13.0129 13.1463 13.5879 13.4327 14.2159C14.3435 16.2126 14.1172 18.5439 12.8393 20.3282Z" stroke="#7758F4" stroke-width="0.5"/>
<path d="M27.532 30.644C28.516 30.644 29.308 30.212 29.668 29.48L29.776 30.5H30.472V26.744C30.472 25.208 29.488 24.536 28.144 24.536C26.716 24.536 25.756 25.292 25.756 26.468H26.512C26.512 25.688 27.112 25.232 28.12 25.232C28.972 25.232 29.656 25.592 29.656 26.732V26.924L27.736 27.08C26.38 27.188 25.564 27.86 25.564 28.928C25.564 29.948 26.296 30.644 27.532 30.644ZM27.724 29.972C26.932 29.972 26.404 29.612 26.404 28.904C26.404 28.256 26.848 27.776 27.94 27.68L29.656 27.548V27.86C29.656 29.12 28.948 29.972 27.724 29.972ZM35.1695 24.62C34.9655 24.572 34.8095 24.56 34.6295 24.56C33.8135 24.56 33.2015 24.968 32.9735 25.592L32.9135 24.692H32.1335V30.5H32.9615V27.188C32.9615 26.084 33.6455 25.364 34.7135 25.364H35.1695V24.62ZM37.8366 30.5V25.388H39.0006V24.692H37.8366V22.856H37.0206V24.692H35.8566V25.388H37.0206V30.5H37.8366Z" fill="#7758F4"/>
</svg>
