<svg width="435" height="676" viewBox="0 0 435 676" fill="none" xmlns="http://www.w3.org/2000/svg">
<g clip-path="url(#clip0_37_1329)">
<rect width="435" height="676" fill="#5129F0"/>
<path d="M98.4181 231C78.7198 231 59.2144 227.12 41.0156 219.582C22.8167 212.044 6.28086 200.995 -7.64793 187.066C-21.5767 173.137 -32.6256 156.601 -40.1638 138.403C-47.702 120.204 -51.5819 100.698 -51.5819 81L98.4181 81L98.4181 231Z" fill="#C5B7FF"/>
<path d="M548.418 381C548.418 420.782 532.615 458.936 504.484 487.066C476.354 515.196 438.201 531 398.418 531C358.636 531 320.483 515.196 292.352 487.066C264.222 458.936 248.418 420.782 248.418 381L398.418 381H548.418Z" fill="#7758F4"/>
<path d="M548.418 381C548.418 341.218 532.615 303.064 504.484 274.934C476.354 246.804 438.201 231 398.418 231C358.636 231 320.483 246.804 292.352 274.934C264.222 303.064 248.418 341.218 248.418 381L398.418 381H548.418Z" fill="#9E88F9"/>
<path d="M537.418 681C537.418 641.218 521.615 603.064 493.484 574.934C465.354 546.804 427.201 531 387.418 531C347.636 531 309.483 546.804 281.352 574.934C253.222 603.064 237.418 641.218 237.418 681L387.418 681H537.418Z" fill="#7758F4"/>
<path d="M-51.5819 231C-51.5819 250.698 -47.702 270.204 -40.1638 288.403C-32.6256 306.601 -21.5767 323.137 -7.64792 337.066C6.28086 350.995 22.8167 362.044 41.0156 369.582C59.2144 377.12 78.7198 381 98.4181 381L98.4181 231H-51.5819Z" fill="#9E88F9"/>
<path d="M-54 531C-54 550.698 -50.1201 570.204 -42.5819 588.403C-35.0437 606.601 -23.9948 623.137 -10.066 637.066C3.86281 650.995 20.3987 662.044 38.5975 669.582C56.7964 677.12 76.3018 681 96 681V531H-54Z" fill="#9E88F9"/>
<path d="M248.418 231C248.418 250.698 244.538 270.204 237 288.403C229.462 306.601 218.413 323.137 204.484 337.066C190.555 350.995 174.019 362.044 155.821 369.582C137.622 377.12 118.116 381 98.4181 381L98.4181 231H248.418Z" fill="#7758F4"/>
<path d="M248.418 381C248.418 400.698 244.538 420.204 237 438.403C229.462 456.601 218.413 473.137 204.484 487.066C190.555 500.995 174.019 512.044 155.821 519.582C137.622 527.12 118.116 531 98.4181 531L98.4181 381H248.418Z" fill="#C5B7FF"/>
<path d="M191 80C191 60.3017 194.88 40.7963 202.418 22.5975C209.956 4.39865 221.005 -12.1372 234.934 -26.066C248.863 -39.9948 265.399 -51.0437 283.598 -58.5819C301.796 -66.1201 321.302 -70 341 -70L341 80L191 80Z" fill="#9E88F9"/>
<path d="M491 230C491 210.302 487.12 190.796 479.582 172.597C472.044 154.399 460.995 137.863 447.066 123.934C433.137 110.005 416.601 98.9563 398.403 91.4181C380.204 83.8799 360.698 80 341 80L341 230L491 230Z" fill="#9E88F9"/>
<circle cx="266" cy="155" r="75" fill="#7758F4"/>
<circle cx="171.418" cy="606" r="75" fill="#7758F4"/>
<path d="M214 -14.5C214 10.8282 201.568 35.119 179.439 53.0287C157.309 70.9384 127.296 81 96 81C64.7045 81 34.6907 70.9384 12.5614 53.0287C-9.56788 35.119 -22 10.8282 -22 -14.5L96 -14.5H214Z" fill="#7758F4"/>
</g>
<defs>
<clipPath id="clip0_37_1329">
<rect width="435" height="676" fill="white"/>
</clipPath>
</defs>
</svg>
