<svg width="1440" height="869" viewBox="0 0 1440 869" fill="none" xmlns="http://www.w3.org/2000/svg">
<path d="M-135.82 860.052C199.667 504.888 316.625 443.642 513.013 429.935C513.013 429.935 885.495 449.868 1104.92 362.831C1324.34 275.793 1496.91 74.7474 1496.91 74.7474" stroke="#5129F0" stroke-width="2"/>
<path d="M-131.1 815.542C247.009 548.993 365.065 490.03 543.693 439.4C543.693 439.4 872.392 368.3 1087.75 272.804C1303.1 177.308 1501.63 30.237 1501.63 30.237" stroke="#7758F4" stroke-width="3"/>
<path d="M-133.349 865.188C221.586 550.461 325.275 500.86 513.559 470.305C513.559 470.305 807.692 437.497 1025.26 346.6C1242.82 255.703 1499.38 79.8835 1499.38 79.8835" stroke="#C5B7FF"/>
<path d="M-92.2656 920.426C243.221 565.262 360.179 504.016 556.567 490.309C556.567 490.309 929.05 510.242 1148.47 423.204C1367.89 336.167 1540.46 135.121 1540.46 135.121" stroke="#5129F0" stroke-width="2"/>
<path d="M-87.5456 875.915C290.563 609.367 408.619 550.403 587.247 499.774C587.247 499.774 915.946 428.674 1131.3 333.178C1346.65 237.681 1545.18 90.6107 1545.18 90.6107" stroke="#7758F4" stroke-width="3"/>
<path d="M-89.7953 925.562C265.14 610.834 368.83 561.234 557.113 530.679C557.113 530.679 851.246 497.871 1068.81 406.974C1286.38 316.076 1542.93 140.257 1542.93 140.257" stroke="#C5B7FF"/>
<path d="M1496.89 101.865C1010 142.245 889.14 195.383 755.838 340.25C755.838 340.25 538.888 643.686 333.918 760.771C128.948 877.856 -135.841 887.17 -135.841 887.17" stroke="#5129F0" stroke-width="2"/>
<path d="M1459.17 77.7669C1014.9 206.763 895.141 262.183 744.079 370.126C744.079 370.126 483.345 582.53 274.306 691.156C65.2681 799.783 -173.56 863.071 -173.56 863.071" stroke="#7758F4" stroke-width="3"/>
<path d="M1499.36 107.001C1031.92 187.818 928.441 237.859 787.035 365.877C787.035 365.877 577.792 575.181 370.966 688.406C164.139 801.632 -133.371 892.306 -133.371 892.306" stroke="#C5B7FF"/>
</svg>
